<svg version="1.1" viewBox="0.0 0.0 252.0 126.0" fill="none" stroke="none" stroke-linecap="square" stroke-miterlimit="10" xmlns:xlink="http://www.w3.org/1999/xlink" xmlns="http://www.w3.org/2000/svg"><clipPath id="p.0"><path d="m0 0l252.0 0l0 126.0l-252.0 0l0 -126.0z" clip-rule="nonzero"/></clipPath><g clip-path="url(#p.0)"><path fill="#f0f0f0" d="m0 0l252.0 0l0 126.0l-252.0 0z" fill-rule="evenodd"/><path fill="#000000" fill-opacity="0.0" d="m38.992126 17.236221l174.01575 0l0 91.52756l-174.01575 0z" fill-rule="evenodd"/><path fill="#555555" d="m95.30356 68.89125q-0.640625 0 -0.640625 -0.34375l0 -5.625q0 -1.046875 -0.09375 -1.5q-0.09375 -0.46875 -0.09375 -0.515625q0 -0.1875 0.296875 -0.265625q0.3125 -0.09375 0.5625 -0.09375q0.21875 0 0.328125 0.234375q0.109375 0.21875 0.15625 0.484375q0.0625 0.25 0.078125 0.328125q0.515625 -0.5625 1.171875 -0.875q0.65625 -0.328125 1.328125 -0.328125q1.203125 0 1.90625 0.6875q0.703125 0.6875 0.703125 1.90625l0 5.5625q0 0.34375 -0.640625 0.34375l-0.0625 0q-0.640625 0 -0.640625 -0.34375l0 -5.4375q0 -0.734375 -0.4375 -1.140625q-0.421875 -0.40625 -1.203125 -0.40625q-0.546875 0 -1.078125 0.3125q-0.53125 0.296875 -0.9375 0.8125l0 5.859375q0 0.34375 -0.640625 0.34375l-0.0625 0zm11.490143 0.0625q-1.8125 0 -2.765625 -1.078125q-0.953125 -1.09375 -0.953125 -3.15625q0 -2.078125 0.953125 -3.203125q0.96875 -1.125 2.765625 -1.125q1.765625 0 2.6875 1.125q0.9375 1.109375 0.9375 3.203125q0 2.078125 -0.921875 3.15625q-0.90625 1.078125 -2.703125 1.078125zm-0.046875 -1.15625q1.171875 0 1.71875 -0.75q0.5625 -0.765625 0.5625 -2.359375q0 -1.609375 -0.5625 -2.375q-0.546875 -0.765625 -1.71875 -0.765625q-1.171875 0 -1.71875 0.765625q-0.546875 0.75 -0.546875 2.375q0 1.59375 0.546875 2.359375q0.546875 0.75 1.71875 0.75zm10.490906 1.09375q-0.640625 0 -0.640625 -0.34375l0 -7.734375q0 -0.359375 0.640625 -0.359375l0.0625 0q0.640625 0 0.640625 0.359375l0 7.734375q0 0.34375 -0.640625 0.34375l-0.0625 0zm0.03125 -9.546875q-0.703125 0 -0.703125 -0.359375l0 -0.953125q0 -0.359375 0.703125 -0.359375q0.703125 0 0.703125 0.359375l0 0.953125q0 0.359375 -0.703125 0.359375zm11.9743805 1.046875q1.0 0 1.75 0.578125q0.765625 0.5625 0.765625 2.015625l0 5.5625q0 0.34375 -0.640625 0.34375l-0.078125 0q-0.625 0 -0.625 -0.34375l0 -5.4375q0 -0.71875 -0.40625 -1.125q-0.390625 -0.421875 -1.140625 -0.421875q-1.015625 0 -1.96875 1.125q0.015625 0.109375 0.015625 0.3125l0 5.546875q0 0.34375 -0.640625 0.34375l-0.0625 0q-0.640625 0 -0.640625 -0.34375l0 -5.4375q0 -0.71875 -0.390625 -1.125q-0.390625 -0.421875 -1.140625 -0.421875q-0.578125 0 -1.09375 0.328125q-0.5 0.3125 -0.859375 0.78125l0 5.875q0 0.34375 -0.640625 0.34375l-0.0625 0q-0.640625 0 -0.640625 -0.34375l0 -5.625q0 -1.046875 -0.09375 -1.5q-0.09375 -0.46875 -0.09375 -0.515625q0 -0.1875 0.296875 -0.265625q0.3125 -0.09375 0.5625 -0.09375q0.21875 0 0.328125 0.234375q0.109375 0.21875 0.15625 0.484375q0.0625 0.25 0.078125 0.328125q0.453125 -0.515625 1.078125 -0.859375q0.625 -0.34375 1.359375 -0.34375q0.71875 0 1.34375 0.296875q0.640625 0.296875 0.9375 1.03125q0.5 -0.578125 1.15625 -0.953125q0.671875 -0.375 1.390625 -0.375zm7.2242737 8.5625q-1.234375 0 -1.984375 -0.609375q-0.75 -0.609375 -0.75 -1.78125q0 -1.265625 0.75 -1.890625q0.765625 -0.640625 1.875 -0.828125q1.109375 -0.1875 2.6875 -0.203125l0 -0.75q0 -0.59375 -0.421875 -0.96875q-0.40625 -0.375 -1.328125 -0.375q-0.71875 0 -1.25 0.171875q-0.515625 0.171875 -0.875 0.34375q-0.34375 0.15625 -0.375 0.15625q-0.15625 0 -0.359375 -0.3125q-0.203125 -0.328125 -0.203125 -0.484375q0 -0.203125 0.421875 -0.4375q0.421875 -0.25 1.125 -0.421875q0.703125 -0.171875 1.453125 -0.171875q1.5 0 2.328125 0.671875q0.828125 0.65625 0.828125 1.84375l0 3.578125q0 1.0625 0.09375 1.515625q0.09375 0.453125 0.09375 0.5q0 0.203125 -0.296875 0.296875q-0.296875 0.078125 -0.5625 0.078125q-0.21875 0 -0.328125 -0.25q-0.09375 -0.25 -0.15625 -0.515625q-0.0625 -0.28125 -0.078125 -0.359375q-1.078125 1.203125 -2.6875 1.203125zm0.0625 -1.171875q0.796875 0 1.359375 -0.28125q0.5625 -0.28125 1.15625 -0.8125l0 -1.890625q-1.203125 0.015625 -1.96875 0.09375q-0.75 0.078125 -1.328125 0.453125q-0.578125 0.359375 -0.578125 1.125q0 0.640625 0.34375 0.984375q0.34375 0.328125 1.015625 0.328125zm9.1887665 4.46875q-3.25 0 -3.25 -2.09375q0 -0.671875 0.390625 -1.21875q0.390625 -0.546875 1.0 -0.796875l0.015625 -0.03125q-0.609375 -0.5 -0.609375 -1.3125q0 -0.984375 0.875 -1.53125q-0.671875 -0.34375 -1.03125 -0.9375q-0.34375 -0.59375 -0.34375 -1.328125q0 -1.125 0.828125 -1.859375q0.828125 -0.75 2.3125 -0.75q0.515625 0 0.953125 0.09375l2.90625 0q0.171875 0 0.25 0.125q0.078125 0.109375 0.078125 0.359375l0 0.1875q0 0.265625 -0.078125 0.375q-0.078125 0.109375 -0.25 0.109375q-0.25 0 -0.609375 -0.03125q-0.359375 -0.03125 -0.625 -0.078125l-0.015625 0.03125q0.3125 0.34375 0.421875 0.671875q0.109375 0.328125 0.109375 0.765625q0 1.15625 -0.828125 1.890625q-0.8125 0.734375 -2.328125 0.734375q-0.703125 0 -1.078125 0.234375q-0.359375 0.234375 -0.359375 0.75q0 0.390625 0.265625 0.609375q0.265625 0.21875 0.65625 0.3125q0.40625 0.078125 1.109375 0.15625l0.46875 0.046875q1.234375 0.15625 1.90625 0.625q0.671875 0.453125 0.671875 1.46875q0 1.171875 -0.96875 1.796875q-0.96875 0.625 -2.84375 0.625zm0.171875 -7.75q0.859375 0 1.359375 -0.34375q0.515625 -0.34375 0.515625 -1.140625q0 -1.5 -1.875 -1.5q-1.84375 0 -1.84375 1.5q0 1.484375 1.84375 1.484375zm0 6.640625q1.203125 0 1.78125 -0.296875q0.578125 -0.28125 0.578125 -0.921875q0 -0.421875 -0.3125 -0.65625q-0.3125 -0.234375 -0.765625 -0.328125q-0.4375 -0.09375 -1.203125 -0.171875q-0.953125 -0.09375 -1.3125 -0.203125q-0.9375 0.4375 -0.9375 1.34375q0 0.671875 0.5 0.953125q0.515625 0.28125 1.671875 0.28125zm8.994141 -2.1875q-2.0 0 -2.96875 -1.03125q-0.953125 -1.046875 -0.953125 -3.1875q0 -2.125 0.9375 -3.234375q0.953125 -1.109375 2.796875 -1.109375q1.625 0 2.453125 1.0625q0.84375 1.0625 0.84375 3.125q0 0.140625 -0.203125 0.40625q-0.1875 0.25 -0.328125 0.25l-5.0625 0q0.109375 1.328125 0.6875 1.953125q0.59375 0.609375 1.78125 0.609375q0.671875 0 1.15625 -0.15625q0.5 -0.171875 0.8125 -0.34375q0.328125 -0.171875 0.375 -0.171875q0.15625 0 0.359375 0.328125q0.203125 0.3125 0.203125 0.484375q0 0.1875 -0.40625 0.4375q-0.40625 0.25 -1.078125 0.421875q-0.65625 0.15625 -1.40625 0.15625zm1.6875 -4.875q0 -2.53125 -1.921875 -2.53125q-2.0625 0 -2.25 2.53125l4.171875 0z" fill-rule="nonzero"/></g></svg>